<svg xmlns="http://www.w3.org/2000/svg" xmlns:xlink="http://www.w3.org/1999/xlink" width="40" height="40" viewBox="0 0 40 40">
  <defs>
    <clipPath id="clip-path">
      <rect id="Rectangle_1980" data-name="Rectangle 1980" width="40" height="40" transform="translate(303 325)" fill="#f6f6f6"/>
    </clipPath>
  </defs>
  <g id="Mask_Group_15" data-name="Mask Group 15" transform="translate(-303 -325)" clip-path="url(#clip-path)">
    <g id="list_1_" data-name="list (1)" transform="translate(303 325.742)">
      <path id="Path_2300" data-name="Path 2300" d="M39.907,5.966,37.772,1.028A1.608,1.608,0,0,0,36.281.039H13.391a1.628,1.628,0,0,0-1.65,1.638V18.162a.587.587,0,1,0,1.173,0V1.678a.455.455,0,0,1,.477-.465h21.3a1.707,1.707,0,0,0-.063.465v9.2a.587.587,0,1,0,1.173,0V7.545h3.065a1.131,1.131,0,0,0,1.038-1.58Zm-4.1.407V1.678a.455.455,0,0,1,.477-.465.429.429,0,0,1,.415.281L38.8,6.372Zm0,0" fill="#7ec242"/>
      <path id="Path_2301" data-name="Path 2301" d="M35.217,25.47a.587.587,0,0,0-.587.587v6.617l-1.945-1.32a.586.586,0,0,0-.659,0L29.5,33.072l-2.532-1.719a.586.586,0,0,0-.659,0l-2.532,1.719-2.531-1.719a.586.586,0,0,0-.659,0L18.308,32.9l.771-3.581h.033a1.447,1.447,0,0,0,1.445-1.445V26.593a1.446,1.446,0,0,0-1.445-1.445H15.268l-3.245-5.113a.587.587,0,0,0-.991.629l2.846,4.484h-7.2l2.846-4.484a.587.587,0,0,0-.991-.629L5.289,25.149H1.445A1.446,1.446,0,0,0,0,26.593v1.278a1.446,1.446,0,0,0,1.445,1.445h.033l.338,1.567a.587.587,0,0,0,.573.463.575.575,0,0,0,.124-.013.586.586,0,0,0,.45-.7l-.284-1.32h15.2l-1.622,7.532a.58.58,0,0,1-.564.456H4.863a.58.58,0,0,1-.564-.456l-.84-3.9a.587.587,0,1,0-1.147.247l.84,3.9a1.759,1.759,0,0,0,1.711,1.382h10.83A1.759,1.759,0,0,0,17.4,37.095l.588-2.73.058,0a.587.587,0,0,0,.33-.1l2.532-1.719,2.531,1.719a.586.586,0,0,0,.659,0l2.532-1.719,2.532,1.719a.586.586,0,0,0,.659,0l2.531-1.719,2.531,1.719a.586.586,0,0,0,.916-.485V26.057a.587.587,0,0,0-.587-.587Zm-34.044,2.4V26.593a.272.272,0,0,1,.272-.272h3.1l-.1.165a.587.587,0,1,0,.99.629l.5-.794h8.69l.5.794a.587.587,0,0,0,.991-.629l-.1-.165h3.1a.272.272,0,0,1,.272.272v1.278a.272.272,0,0,1-.272.272H1.445a.272.272,0,0,1-.272-.272Zm0,0" fill="#7ec242"/>
      <path id="Path_2302" data-name="Path 2302" d="M17.694,10.528H17.7a.586.586,0,0,0,.457-.225l2.277-2.914a.587.587,0,0,0-.925-.722L17.685,9,17.2,8.406a.587.587,0,1,0-.911.739l.946,1.166a.586.586,0,0,0,.456.217Zm0,0" fill="#7ec242"/>
      <path id="Path_2303" data-name="Path 2303" d="M23.269,9.339H31.86a.587.587,0,0,0,0-1.173H23.269a.587.587,0,1,0,0,1.173Zm0,0" fill="#7ec242"/>
      <path id="Path_2304" data-name="Path 2304" d="M16.292,15.329l.946,1.165a.587.587,0,0,0,.456.217H17.7a.586.586,0,0,0,.457-.225l2.277-2.914a.587.587,0,0,0-.925-.722l-1.823,2.334L17.2,14.59a.587.587,0,1,0-.911.739Zm0,0" fill="#7ec242"/>
      <path id="Path_2305" data-name="Path 2305" d="M23.269,15.523H31.86a.587.587,0,0,0,0-1.173H23.269a.587.587,0,0,0,0,1.173Zm0,0" fill="#7ec242"/>
      <path id="Path_2306" data-name="Path 2306" d="M16.292,21.513l.946,1.166a.587.587,0,0,0,.456.217H17.7a.587.587,0,0,0,.457-.226l2.277-2.914a.587.587,0,0,0-.925-.722l-1.823,2.334-.482-.594a.587.587,0,1,0-.911.739Zm0,0" fill="#7ec242"/>
      <path id="Path_2307" data-name="Path 2307" d="M7.269,32.161V30.989a.587.587,0,0,0-1.173,0v1.172a.587.587,0,1,0,1.173,0Zm0,0" fill="#7ec242"/>
      <path id="Path_2308" data-name="Path 2308" d="M10.865,32.161V30.989a.587.587,0,0,0-1.173,0v1.172a.587.587,0,1,0,1.173,0Zm0,0" fill="#7ec242"/>
      <path id="Path_2309" data-name="Path 2309" d="M14.461,32.161V30.989a.587.587,0,0,0-1.173,0v1.172a.587.587,0,0,0,1.173,0Zm0,0" fill="#7ec242"/>
      <path id="Path_2310" data-name="Path 2310" d="M9.067,34.921V33.75a.587.587,0,1,0-1.173,0v1.172a.587.587,0,1,0,1.173,0Zm0,0" fill="#7ec242"/>
      <path id="Path_2311" data-name="Path 2311" d="M12.663,34.921V33.75a.587.587,0,1,0-1.173,0v1.172a.587.587,0,1,0,1.173,0Zm0,0" fill="#7ec242"/>
      <path id="Path_2312" data-name="Path 2312" d="M39.382,15.623a.587.587,0,0,0-.8.215l-.359.623L35.25,14.744l.623-1.079a.171.171,0,0,1,.106-.081.168.168,0,0,1,.131.017l1.948,1.125a.587.587,0,1,0,.587-1.016L36.7,12.586a1.346,1.346,0,0,0-1.839.493l-.916,1.586h0v0l-3.387,5.867H23.269a.587.587,0,1,0,0,1.173h6.606l-1.391,2.409a.588.588,0,0,0-.078.275l-.034,1.083c0,.009,0,.017,0,.026l-.081,2.562a1.23,1.23,0,0,0,1.878,1.084l2.18-1.352.018-.011.923-.573a.588.588,0,0,0,.2-.205l5.455-9.449v0l.652-1.129a.586.586,0,0,0-.215-.8ZM29.55,28.149a.057.057,0,0,1-.087-.05l.05-1.594,1.393.8Zm3-1.858-.509.316-2.481-1.433.019-.6,1.818-3.148.015-.027,3.256-5.64,2.972,1.716Zm0,0" fill="#7ec242"/>
    </g>
  </g>
</svg>
