<svg xmlns="http://www.w3.org/2000/svg" xmlns:xlink="http://www.w3.org/1999/xlink" width="40" height="40" viewBox="0 0 40 40">
  <defs>
    <clipPath id="clip-path">
      <rect id="Rectangle_1980" data-name="Rectangle 1980" width="40" height="40" transform="translate(303 325)" fill="#f6f6f6"/>
    </clipPath>
  </defs>
  <g id="Mask_Group_13" data-name="Mask Group 13" transform="translate(-303 -325)" clip-path="url(#clip-path)">
    <g id="franchise" transform="translate(303.801 325)">
      <path id="Path_2289" data-name="Path 2289" d="M31.315,30.109A20.534,20.534,0,0,0,21.6,26.265l1.273-3.145a.766.766,0,0,1,.434-.428A11.728,11.728,0,1,0,11.376,2.938a.586.586,0,0,0,.775.879A10.553,10.553,0,1,1,22.887,21.6a1.941,1.941,0,0,0-1.1,1.083l-1.658,4.093-.006.016,0,0-.625,1.544a.4.4,0,0,1-.743,0l-.72-1.778-.009-.022L16.46,22.681a1.935,1.935,0,0,0-1.1-1.082,10.585,10.585,0,0,1-6.8-10.117,10.448,10.448,0,0,1,2.072-6.022.586.586,0,0,0-.941-.7,11.616,11.616,0,0,0-2.3,6.694,11.759,11.759,0,0,0,7.55,11.238.761.761,0,0,1,.429.427l1.273,3.144A20.5,20.5,0,0,0,11.87,27.43a.586.586,0,1,0,.412,1.1,19.309,19.309,0,0,1,3.218-.9A14.6,14.6,0,0,0,11.848,33.4H9.573a5.253,5.253,0,0,0-4.117-8.472H5.415A5.261,5.261,0,0,0,3.529,35.1l.958,2.366a1,1,0,0,0,1.854,0L7.3,35.1a5.186,5.186,0,0,0,1.02-.528h3.112a33.016,33.016,0,0,0-1.081,4.258h-9A19.462,19.462,0,0,1,2.523,36.6a.586.586,0,1,0-1-.611A20.666,20.666,0,0,0,.109,38.754.9.9,0,0,0,.938,40H37.307a.9.9,0,0,0,.828-1.247,20.663,20.663,0,0,0-6.82-8.644Zm-24.443,3.9a1.155,1.155,0,0,0-.656.645l-.8,1.979-.8-1.979a1.152,1.152,0,0,0-.654-.644A4.089,4.089,0,0,1,5.415,26.1h.032a4.089,4.089,0,0,1,1.425,7.909Zm10.4-6.208.4.98a1.573,1.573,0,0,0,2.916,0l.4-.979a8.011,8.011,0,0,1,2.647,2.671.586.586,0,1,0,.981-.641,10.715,10.715,0,0,0-1.859-2.2,19.363,19.363,0,0,1,7.876,3.426A19.564,19.564,0,0,1,33.272,33.4H26.389c-.194-.5-.4-.986-.613-1.444a.586.586,0,1,0-1.061.5q.214.457.414.948H13.113c1.117-2.74,2.561-4.717,4.155-5.6Zm-5.725,11.03a30.985,30.985,0,0,1,1.129-4.259h12.9A31.116,31.116,0,0,1,26.7,38.828Zm16.353,0a32.965,32.965,0,0,0-1.088-4.259h7.485a19.436,19.436,0,0,1,2.6,4.259Zm0,0" fill="#7ec242"/>
      <path id="Path_2290" data-name="Path 2290" d="M14.274,18.71h9.7A1.108,1.108,0,0,0,25.078,17.6V11.266a2.607,2.607,0,0,0,.722-1.8V7.819a.045.045,0,0,0,0-.006c0-.005,0-.011,0-.016h0a.585.585,0,0,0-.078-.265L24.148,4.679A1.312,1.312,0,0,0,23,4H15.245a1.312,1.312,0,0,0-1.148.677L12.524,7.532a.583.583,0,0,0-.078.282v0s0,0,0,.007V9.463a2.607,2.607,0,0,0,.722,1.8V17.6a1.108,1.108,0,0,0,1.106,1.106Zm5.8-13.537.38,2.066H17.8l.379-2.066Zm4.558,4.29a1.445,1.445,0,0,1-2.889,0V8.411h2.889Zm-6.95-1.052h2.889V9.463a1.445,1.445,0,0,1-2.889,0V8.412Zm-1.172,0V9.463a1.445,1.445,0,0,1-2.889,0V8.412Zm3.826,9.127h-2.42V13.851h2.42Zm1.172,0V13.406a.728.728,0,0,0-.727-.727h-3.31a.727.727,0,0,0-.727.727v4.132h-2.4v-5.56a2.617,2.617,0,0,0,2.753-.867,2.614,2.614,0,0,0,4.061,0,2.615,2.615,0,0,0,2.753.866v5.561ZM23.122,5.245l1.1,1.994H21.641l-.38-2.066H23a.137.137,0,0,1,.121.072Zm-8,0a.139.139,0,0,1,.121-.072h1.739L16.6,7.239H14.023Zm0,0" fill="#7ec242"/>
      <path id="Path_2291" data-name="Path 2291" d="M33.1,23.98a1.941,1.941,0,1,0-1.942-1.941A1.944,1.944,0,0,0,33.1,23.98Zm0-2.711a.769.769,0,1,1-.77.769A.77.77,0,0,1,33.1,21.27Zm0,0" fill="#7ec242"/>
      <path id="Path_2292" data-name="Path 2292" d="M29.976,18.516a.586.586,0,0,0,.815.151,4.083,4.083,0,0,1,6.395,3.37,4.112,4.112,0,0,1-2.63,3.82,1.155,1.155,0,0,0-.656.645l-.8,1.98-.8-1.98a1.153,1.153,0,0,0-.655-.644,4.1,4.1,0,0,1-2.631-3.918,4.026,4.026,0,0,1,.417-1.7.586.586,0,1,0-1.051-.518,5.186,5.186,0,0,0-.537,2.192,5.273,5.273,0,0,0,3.374,5.035l.958,2.366a1,1,0,0,0,1.854,0l.958-2.366a5.261,5.261,0,0,0-1.844-10.172,5.237,5.237,0,0,0-3.011.924.586.586,0,0,0-.151.815Zm0,0" fill="#7ec242"/>
      <path id="Path_2293" data-name="Path 2293" d="M5.414,28.245a1.941,1.941,0,1,0,1.941,1.941A1.944,1.944,0,0,0,5.414,28.245Zm0,2.711a.769.769,0,1,1,.769-.769A.77.77,0,0,1,5.414,30.956Zm0,0" fill="#7ec242"/>
    </g>
  </g>
</svg>
