<svg xmlns="http://www.w3.org/2000/svg" xmlns:xlink="http://www.w3.org/1999/xlink" width="40" height="40" viewBox="0 0 40 40">
  <defs>
    <clipPath id="clip-path">
      <rect id="Rectangle_1980" data-name="Rectangle 1980" width="40" height="40" transform="translate(303 325)" fill="#f6f6f6"/>
    </clipPath>
  </defs>
  <g id="Mask_Group_16" data-name="Mask Group 16" transform="translate(-303 -325)" clip-path="url(#clip-path)">
    <g id="invoice_2_" data-name="invoice (2)" transform="translate(303.185 325)">
      <path id="Path_2313" data-name="Path 2313" d="M5.5,12.44a.586.586,0,0,0,.586-.586V1.8a1.866,1.866,0,0,0-.112-.626H31.091a.637.637,0,0,1,.661.647v17.5a.586.586,0,1,0,1.172,0V1.819A1.808,1.808,0,0,0,31.091,0H4.258A1.785,1.785,0,0,0,2.6,1.1L.1,6.886A1.224,1.224,0,0,0,1.225,8.6H4.919v3.259a.586.586,0,0,0,.586.586ZM1.225,7.424a.053.053,0,0,1-.048-.073l2.5-5.787a.607.607,0,0,1,.58-.392.637.637,0,0,1,.661.647v5.6Zm0,0" fill="#7ec242"/>
      <path id="Path_2314" data-name="Path 2314" d="M27.165,12.484H10.677a.586.586,0,0,0,0,1.172H27.165a.586.586,0,0,0,0-1.172Zm0,0" fill="#7ec242"/>
      <path id="Path_2315" data-name="Path 2315" d="M27.165,18.676H10.677a.586.586,0,0,0,0,1.172H27.165a.586.586,0,0,0,0-1.172Zm0,0" fill="#7ec242"/>
      <path id="Path_2316" data-name="Path 2316" d="M39.045,25.467a.586.586,0,0,0,.586-.586v-2.3a1.432,1.432,0,0,0-1.43-1.43H19.819a1.432,1.432,0,0,0-1.43,1.43v2.286H10.677a.586.586,0,0,0,0,1.172h7.711v5.02H10.677a.586.586,0,1,0,0,1.172h7.711v2.351a1.432,1.432,0,0,0,1.43,1.43H31.752v2.332l-2.336-1.586a.766.766,0,0,0-.865,0l-2.922,1.985-2.921-1.984a.773.773,0,0,0-.865,0L18.92,38.744,16,36.759a.768.768,0,0,0-.863,0l-2.921,1.984-2.92-1.983a.772.772,0,0,0-.865,0L6.091,38.346V14.272a.586.586,0,1,0-1.172,0V39.106a.769.769,0,0,0,1.2.636l2.738-1.859,2.922,1.985a.767.767,0,0,0,.863,0l2.922-1.984,2.925,1.987a.771.771,0,0,0,.861,0l2.922-1.985L25.2,39.871a.774.774,0,0,0,.859,0l2.922-1.985,2.739,1.859a.769.769,0,0,0,1.2-.636V36.014H38.2a1.432,1.432,0,0,0,1.43-1.43V27.3a.586.586,0,0,0-1.172,0v2.434H19.56V25.471c0-.005,0-.011,0-.016s0-.011,0-.016V22.583a.259.259,0,0,1,.259-.259H38.2a.259.259,0,0,1,.258.259v2.3a.586.586,0,0,0,.586.586ZM38.2,34.843H19.819a.259.259,0,0,1-.258-.259V33.365h18.9v1.219a.259.259,0,0,1-.258.259Zm.258-3.938v1.289H19.56V30.9Zm0,0" fill="#7ec242"/>
      <path id="Path_2317" data-name="Path 2317" d="M21.051,26.894a.586.586,0,0,0,0,1.172h1.1a.586.586,0,0,0,0-1.172Zm0,0" fill="#7ec242"/>
      <path id="Path_2318" data-name="Path 2318" d="M30.025,26.894a.586.586,0,0,0,0,1.172h1.1a.586.586,0,0,0,0-1.172Zm0,0" fill="#7ec242"/>
      <path id="Path_2319" data-name="Path 2319" d="M24.348,26.894a.586.586,0,0,0,0,1.172h2.793a.586.586,0,0,0,0-1.172Zm0,0" fill="#7ec242"/>
      <path id="Path_2320" data-name="Path 2320" d="M10.454,8.167a.585.585,0,0,0,.76-.331l.241-.613h.586a.586.586,0,1,0,0-1.172h-.124l.221-.561h.585a.586.586,0,1,0,0-1.172H12.6l.073-.184a.586.586,0,1,0-1.09-.429l-.241.613h-.473l.072-.184a.586.586,0,0,0-1.09-.429l-.241.613H9.021a.586.586,0,1,0,0,1.172h.124l-.221.561H8.339a.586.586,0,1,0,0,1.172h.124l-.072.184a.586.586,0,1,0,1.09.429l.241-.613H10.2l-.072.184a.586.586,0,0,0,.331.76Zm-.27-2.115.221-.561h.473l-.221.561Zm0,0" fill="#7ec242"/>
      <path id="Path_2321" data-name="Path 2321" d="M17.291,6.534V5.009a1.774,1.774,0,0,0-3.548,0V6.534a1.774,1.774,0,0,0,3.548,0Zm-2.376,0V5.009a.6.6,0,0,1,1.2,0V6.534a.6.6,0,0,1-1.2,0Zm0,0" fill="#7ec242"/>
      <path id="Path_2322" data-name="Path 2322" d="M21.242,6.534V5.009a1.774,1.774,0,0,0-3.548,0V6.534a1.774,1.774,0,0,0,3.548,0Zm-2.376,0V5.009a.6.6,0,0,1,1.2,0V6.534a.6.6,0,0,1-1.2,0Zm0,0" fill="#7ec242"/>
      <path id="Path_2323" data-name="Path 2323" d="M23.189,8.308a.586.586,0,0,0,.586-.586v-3.9a.586.586,0,0,0-.586-.586h-.958a.586.586,0,1,0,0,1.172H22.6V7.722a.586.586,0,0,0,.586.586Zm0,0" fill="#7ec242"/>
    </g>
  </g>
</svg>
