<svg xmlns="http://www.w3.org/2000/svg" xmlns:xlink="http://www.w3.org/1999/xlink" width="40" height="40" viewBox="0 0 40 40">
  <defs>
    <clipPath id="clip-path">
      <rect id="Rectangle_1980" data-name="Rectangle 1980" width="40" height="40" transform="translate(303 325)" fill="#f6f6f6"/>
    </clipPath>
  </defs>
  <g id="Mask_Group_23" data-name="Mask Group 23" transform="translate(-303 -325)" clip-path="url(#clip-path)">
    <g id="conversation_1_" data-name="conversation (1)" transform="translate(303 325)">
      <g id="Group_1784" data-name="Group 1784">
        <g id="Group_1783" data-name="Group 1783">
          <path id="Path_2747" data-name="Path 2747" d="M27.031,24.922a.781.781,0,0,0-.781.781v5.391A3.911,3.911,0,0,1,22.344,35H13.909a.781.781,0,0,0-.781.781v1.553l-1.865-1.865A.781.781,0,0,0,10.545,35H5.469a3.911,3.911,0,0,1-3.906-3.906V19.063a3.911,3.911,0,0,1,3.906-3.906h7.891a.781.781,0,0,0,0-1.562H5.469A5.475,5.475,0,0,0,0,19.063V31.094a5.475,5.475,0,0,0,5.469,5.469h4.676l3.209,3.209a.781.781,0,0,0,1.334-.552l0-2.657h7.654a5.475,5.475,0,0,0,5.469-5.469V25.7A.781.781,0,0,0,27.031,24.922Z" fill="#7ec242"/>
        </g>
      </g>
      <g id="Group_1786" data-name="Group 1786">
        <g id="Group_1785" data-name="Group 1785">
          <path id="Path_2748" data-name="Path 2748" d="M28.645,0H26.668a11.355,11.355,0,1,0,0,22.71h1.977a11.377,11.377,0,0,0,2.882-.369l2.921,2.919a.781.781,0,0,0,1.334-.553v-4.52a11.464,11.464,0,0,0,2.985-3.68A11.233,11.233,0,0,0,40,11.355,11.368,11.368,0,0,0,28.645,0ZM34.53,19.182a.781.781,0,0,0-.311.624v3.016l-1.912-1.911a.781.781,0,0,0-.782-.194,9.8,9.8,0,0,1-2.88.431H26.668a9.793,9.793,0,1,1,0-19.585h1.977a9.793,9.793,0,0,1,5.885,17.62Z" fill="#7ec242"/>
        </g>
      </g>
      <g id="Group_1788" data-name="Group 1788">
        <g id="Group_1787" data-name="Group 1787">
          <path id="Path_2749" data-name="Path 2749" d="M31.174,8.549a3.315,3.315,0,0,0-3.067-3.067,3.282,3.282,0,0,0-2.489.881,3.319,3.319,0,0,0-1.051,2.418.781.781,0,0,0,1.563,0A1.745,1.745,0,0,1,28,7.041a1.745,1.745,0,0,1,.258,3.444,1.478,1.478,0,0,0-1.165,1.449V13.81a.781.781,0,1,0,1.562,0V12A3.291,3.291,0,0,0,31.174,8.549Z" fill="#7ec242"/>
        </g>
      </g>
      <g id="Group_1790" data-name="Group 1790">
        <g id="Group_1789" data-name="Group 1789">
          <path id="Path_2750" data-name="Path 2750" d="M28.427,16.348a.782.782,0,1,0,.229.552A.787.787,0,0,0,28.427,16.348Z" fill="#7ec242"/>
        </g>
      </g>
      <g id="Group_1792" data-name="Group 1792">
        <g id="Group_1791" data-name="Group 1791">
          <path id="Path_2751" data-name="Path 2751" d="M21.484,24.219H5a.781.781,0,0,0,0,1.563H21.484a.781.781,0,0,0,0-1.562Z" fill="#7ec242"/>
        </g>
      </g>
      <g id="Group_1794" data-name="Group 1794">
        <g id="Group_1793" data-name="Group 1793">
          <path id="Path_2752" data-name="Path 2752" d="M22.037,28.823a.781.781,0,1,0,.229.552A.787.787,0,0,0,22.037,28.823Z" fill="#7ec242"/>
        </g>
      </g>
      <g id="Group_1796" data-name="Group 1796">
        <g id="Group_1795" data-name="Group 1795">
          <path id="Path_2753" data-name="Path 2753" d="M18.411,28.594H5a.781.781,0,0,0,0,1.563H18.411a.781.781,0,0,0,0-1.562Z" fill="#7ec242"/>
        </g>
      </g>
      <g id="Group_1798" data-name="Group 1798">
        <g id="Group_1797" data-name="Group 1797">
          <path id="Path_2754" data-name="Path 2754" d="M16.406,19.844H5a.781.781,0,0,0,0,1.563H16.406a.781.781,0,0,0,0-1.562Z" fill="#7ec242"/>
        </g>
      </g>
    </g>
  </g>
</svg>
